<?xml version="1.0" standalone="no"?>
<!DOCTYPE svg PUBLIC "-//W3C//DTD SVG 20010904//EN"
 "http://www.w3.org/TR/2001/REC-SVG-20010904/DTD/svg10.dtd">
<svg version="1.0" xmlns="http://www.w3.org/2000/svg"
 width="81.000000pt" height="78.000000pt" viewBox="0 0 81.000000 78.000000"
 preserveAspectRatio="xMidYMid meet">

<g transform="translate(0.000000,78.000000) scale(0.100000,-0.100000)"
fill="#000000" stroke="none">
<path d="M570 765 c0 -8 -7 -15 -15 -15 -10 0 -15 -10 -15 -30 0 -20 -5 -30
-15 -30 -8 0 -15 -7 -15 -15 0 -8 -7 -15 -15 -15 -10 0 -15 -10 -15 -30 0 -20
-5 -30 -15 -30 -10 0 -15 -10 -15 -30 l0 -30 -90 0 c-73 0 -90 3 -90 15 0 10
-10 15 -30 15 -20 0 -30 -5 -30 -15 0 -10 -10 -15 -30 -15 -20 0 -30 5 -30 15
0 11 -12 15 -45 15 -33 0 -45 -4 -45 -15 0 -8 -7 -15 -15 -15 -8 0 -15 -7 -15
-15 0 -8 -7 -15 -15 -15 -12 0 -15 -20 -15 -120 0 -100 3 -120 15 -120 8 0 15
-7 15 -15 0 -8 7 -15 15 -15 10 0 15 10 15 30 0 20 5 30 15 30 10 0 15 10 15
30 0 20 5 30 15 30 10 0 15 -10 15 -30 0 -20 5 -30 15 -30 10 0 15 -10 15 -30
0 -20 -5 -30 -15 -30 -12 0 -15 -15 -15 -75 l0 -75 45 0 c33 0 45 4 45 15 0
10 10 15 30 15 l30 0 0 60 0 60 90 0 90 0 0 -75 0 -75 45 0 c33 0 45 4 45 15
0 10 10 15 30 15 l30 0 0 90 c0 73 3 90 15 90 11 0 15 12 15 45 0 33 4 45 15
45 8 0 15 -7 15 -15 0 -12 13 -15 60 -15 47 0 60 3 60 15 0 8 7 15 15 15 11 0
15 12 15 45 0 33 -4 45 -15 45 -12 0 -15 13 -15 60 0 47 -3 60 -15 60 -8 0
-15 7 -15 15 0 8 7 15 15 15 10 0 15 10 15 30 0 20 -5 30 -15 30 -8 0 -15 7
-15 15 0 8 -7 15 -15 15 -8 0 -15 7 -15 15 0 11 -12 15 -45 15 -33 0 -45 4
-45 15 0 10 -10 15 -30 15 -20 0 -30 -5 -30 -15z m30 -45 c0 -20 -5 -30 -15
-30 -10 0 -15 10 -15 30 0 20 5 30 15 30 10 0 15 -10 15 -30z m120 -120 c0
-20 5 -30 15 -30 12 0 15 -13 15 -60 0 -47 -3 -60 -15 -60 -8 0 -15 -7 -15
-15 0 -8 7 -15 15 -15 8 0 15 7 15 15 0 8 7 15 15 15 10 0 15 -10 15 -30 0
-29 -2 -30 -45 -30 -33 0 -45 4 -45 15 0 8 -7 15 -15 15 -8 0 -15 7 -15 15 0
8 -7 15 -15 15 -8 0 -15 7 -15 15 0 8 -7 15 -15 15 -8 0 -15 7 -15 15 0 8 -7
15 -15 15 -12 0 -15 13 -15 60 l0 60 75 0 75 0 0 -30z m-300 -105 c0 -8 -7
-15 -15 -15 -8 0 -15 -7 -15 -15 0 -10 -10 -15 -30 -15 -20 0 -30 5 -30 15 0
8 -7 15 -15 15 -8 0 -15 7 -15 15 0 12 13 15 60 15 47 0 60 -3 60 -15z m120
-30 c0 -8 7 -15 15 -15 8 0 15 -7 15 -15 0 -8 7 -15 15 -15 10 0 15 -10 15
-30 0 -20 -5 -30 -15 -30 -8 0 -15 -7 -15 -15 0 -8 -7 -15 -15 -15 -8 0 -15
-7 -15 -15 0 -10 -10 -15 -30 -15 -20 0 -30 5 -30 15 0 8 -7 15 -15 15 -8 0
-15 -7 -15 -15 0 -11 -12 -15 -45 -15 -33 0 -45 4 -45 15 0 11 12 15 45 15 33
0 45 4 45 15 0 8 7 15 15 15 8 0 15 7 15 15 0 8 7 15 15 15 11 0 15 12 15 45
0 33 4 45 15 45 8 0 15 -7 15 -15z m-330 -120 c0 -8 7 -15 15 -15 8 0 15 -7
15 -15 0 -8 -7 -15 -15 -15 -11 0 -15 -12 -15 -45 0 -33 -4 -45 -15 -45 -10 0
-15 -10 -15 -30 0 -20 -5 -30 -15 -30 -10 0 -15 10 -15 30 0 20 5 30 15 30 11
0 15 12 15 45 0 33 4 45 15 45 8 0 15 7 15 15 0 8 -7 15 -15 15 -8 0 -15 7
-15 15 0 8 7 15 15 15 8 0 15 -7 15 -15z m120 -30 c0 -8 -7 -15 -15 -15 -8 0
-15 7 -15 15 0 8 7 15 15 15 8 0 15 -7 15 -15z m180 -90 c0 -33 -4 -45 -15
-45 -11 0 -15 12 -15 45 0 33 4 45 15 45 11 0 15 -12 15 -45z m60 -30 c0 -8
-7 -15 -15 -15 -8 0 -15 7 -15 15 0 8 7 15 15 15 8 0 15 -7 15 -15z"/>
<path d="M630 555 c0 -33 4 -45 15 -45 11 0 15 12 15 45 0 33 -4 45 -15 45
-11 0 -15 -12 -15 -45z"/>
<path d="M720 765 c0 -8 7 -15 15 -15 8 0 15 -7 15 -15 0 -8 7 -15 15 -15 10
0 15 10 15 30 0 27 -3 30 -30 30 -20 0 -30 -5 -30 -15z"/>
</g>
</svg>
